# xmcd
#
# Track frame offsets:
# 150
# 24022
# 38982
# 68540
# 93319
# 111537
# 161033
# 192436
#
# Disc length: 2728 seconds
#
# Revision: 0
# Processed by: cddbd v1.4PL0 Copyright (c) Steve Scherf et al.
# Submitted via: Axialis_AX_CDPlayer 2.6
#
DISCID=620aa608
DTITLE=Savoy Brown - Street Corner Talking
DYEAR=1900
DGENRE=
TTITLE0=Tell Mama
TTITLE1=Let It Rock
TTITLE2=I Can't Get Next To You
TTITLE3=Time Does Tell
TTITLE4=Street Corner Talking
TTITLE5=All I Can Do
TTITLE6=Wang Dang Doodle
TTITLE7=Tell Mama (Single Version)
EXTD=
EXTT0=
EXTT1=
EXTT2=
EXTT3=
EXTT4=
EXTT5=
EXTT6=
EXTT7=
PLAYORDER=
